<svg xmlns="http://www.w3.org/2000/svg" width="1200" height="624" viewBox="0 0 1200 624">
  <defs>
    <linearGradient id="bg" x1="0" y1="0" x2="1" y2="1">
      <stop offset="0%" stop-color="#001F3F"/>
      <stop offset="100%" stop-color="#071018"/>
    </linearGradient>
    <filter id="glow" x="-30%" y="-30%" width="160%" height="160%">
      <feGaussianBlur stdDeviation="8" result="b"/>
      <feMerge><feMergeNode in="b"/><feMergeNode in="SourceGraphic"/></feMerge>
    </filter>
  </defs>
  <rect width="1200" height="624" fill="url(#bg)"/>
  <g opacity="0.14" stroke="#00D4FF" stroke-width="1" fill="none">
    <path d="M0 78 H1200 M0 156 H1200 M0 234 H1200 M0 312 H1200 M0 390 H1200 M0 468 H1200 M0 546 H1200"/>
  </g>
  <g filter="url(#glow)">
    <rect x="80" y="140" width="220" height="140" rx="8" fill="#0a1a22" stroke="#00D4FF" stroke-opacity="0.35"/>
    <rect x="80" y="310" width="220" height="140" rx="8" fill="#0a1a22" stroke="#00D4FF" stroke-opacity="0.25"/>
    <polyline points="100,240 130,220 160,228 190,200 220,210 250,190 270,205" fill="none" stroke="#00D4FF" stroke-width="2"/>
    <rect x="360" y="250" width="140" height="28" rx="14" fill="#0d2a32" stroke="#00D4FF" stroke-opacity="0.5"/>
    <rect x="540" y="310" width="160" height="28" rx="14" fill="#1a1428" stroke="#C9A96E" stroke-opacity="0.45"/>
    <rect x="860" y="140" width="260" height="160" rx="8" fill="#0a1a22" stroke="#00D4FF" stroke-opacity="0.25"/>
    <polyline points="880,270 920,250 960,230 1000,200 1040,180 1080,170" fill="none" stroke="#00D4FF" stroke-width="2"/>
  </g>
  <circle cx="200" cy="520" r="4" fill="#00D4FF" opacity="0.6"/>
  <circle cx="980" cy="480" r="3" fill="#ea580c" opacity="0.5"/>
</svg>
