<svg xmlns="http://www.w3.org/2000/svg" viewBox="0 0 1200 630" width="1200" height="630">
  <defs>
    <linearGradient id="bg" x1="0%" y1="0%" x2="100%" y2="100%">
      <stop offset="0%" stop-color="#0a0e27"/>
      <stop offset="50%" stop-color="#0d1b3e"/>
      <stop offset="100%" stop-color="#061528"/>
    </linearGradient>
    <linearGradient id="accent" x1="0%" y1="0%" x2="100%" y2="0%">
      <stop offset="0%" stop-color="#ff6b35"/>
      <stop offset="50%" stop-color="#f7931e"/>
      <stop offset="100%" stop-color="#ffd700"/>
    </linearGradient>
    <linearGradient id="bar" x1="0%" y1="0%" x2="100%" y2="0%">
      <stop offset="0%" stop-color="#00d9ff"/>
      <stop offset="100%" stop-color="#0080ff"/>
    </linearGradient>
    <linearGradient id="bar2" x1="0%" y1="0%" x2="100%" y2="0%">
      <stop offset="0%" stop-color="#7b68ee"/>
      <stop offset="100%" stop-color="#9370db"/>
    </linearGradient>
  </defs>
  
  <!-- Background -->
  <rect width="1200" height="630" fill="url(#bg)"/>
  
  <!-- Grid lines -->
  <g stroke="#1a2a5a" stroke-width="0.5" opacity="0.3">
    <line x1="0" y1="100" x2="1200" y2="100"/>
    <line x1="0" y1="200" x2="1200" y2="200"/>
    <line x1="0" y1="300" x2="1200" y2="300"/>
    <line x1="0" y1="400" x2="1200" y2="400"/>
    <line x1="0" y1="500" x2="1200" y2="500"/>
    <line x1="200" y1="0" x2="200" y2="630"/>
    <line x1="400" y1="0" x2="400" y2="630"/>
    <line x1="600" y1="0" x2="600" y2="630"/>
    <line x1="800" y1="0" x2="800" y2="630"/>
    <line x1="1000" y1="0" x2="1000" y2="630"/>
  </g>
  
  <!-- Title -->
  <text x="60" y="55" font-family="monospace" font-size="26" fill="#ff6b35" font-weight="bold">SMF CLEARINGHOUSE</text>
  <text x="60" y="85" font-family="sans-serif" font-size="32" fill="#e0e6f0" font-weight="bold">Mixtral-8x22B NVFP4 on DGX Spark</text>
  <text x="60" y="115" font-family="sans-serif" font-size="18" fill="#8a9bb8">141B params → 75 GB · 3.5× compression · Day 2 of 10</text>
  
  <!-- Left panel: MoE Architecture diagram -->
  <text x="60" y="160" font-family="monospace" font-size="14" fill="#ff6b35" font-weight="bold">ARCHITECTURE: 8 EXPERTS, 2 ACTIVE</text>
  
  <!-- 8 expert boxes -->
  <g font-family="monospace" font-size="11" text-anchor="middle">
    <!-- Active experts (highlighted) -->
    <rect x="60" y="180" width="55" height="40" rx="4" fill="#00d9ff" opacity="0.25" stroke="#00d9ff" stroke-width="1.5"/>
    <text x="87" y="205" fill="#00d9ff">E1 ✓</text>
    
    <rect x="125" y="180" width="55" height="40" rx="4" fill="#1a2a5a" stroke="#3a4a7a" stroke-width="1"/>
    <text x="152" y="205" fill="#5a6a9a">E2</text>
    
    <rect x="190" y="180" width="55" height="40" rx="4" fill="#1a2a5a" stroke="#3a4a7a" stroke-width="1"/>
    <text x="217" y="205" fill="#5a6a9a">E3</text>
    
    <rect x="255" y="180" width="55" height="40" rx="4" fill="#00d9ff" opacity="0.25" stroke="#00d9ff" stroke-width="1.5"/>
    <text x="282" y="205" fill="#00d9ff">E4 ✓</text>
    
    <rect x="60" y="230" width="55" height="40" rx="4" fill="#1a2a5a" stroke="#3a4a7a" stroke-width="1"/>
    <text x="87" y="255" fill="#5a6a9a">E5</text>
    
    <rect x="125" y="230" width="55" height="40" rx="4" fill="#1a2a5a" stroke="#3a4a7a" stroke-width="1"/>
    <text x="152" y="255" fill="#5a6a9a">E6</text>
    
    <rect x="190" y="230" width="55" height="40" rx="4" fill="#1a2a5a" stroke="#3a4a7a" stroke-width="1"/>
    <text x="217" y="255" fill="#5a6a9a">E7</text>
    
    <rect x="255" y="230" width="55" height="40" rx="4" fill="#1a2a5a" stroke="#3a4a7a" stroke-width="1"/>
    <text x="282" y="255" fill="#5a6a9a">E8</text>
  </g>
  
  <!-- Router -->
  <text x="175" y="295" font-family="monospace" font-size="10" fill="#8a9bb8" text-anchor="middle">Router (gate) — kept in FP32</text>
  <line x1="87" y1="220" x2="175" y2="285" stroke="#00d9ff" stroke-width="1" opacity="0.5"/>
  <line x1="282" y1="220" x2="175" y2="285" stroke="#00d9ff" stroke-width="1" opacity="0.5"/>
  
  <!-- Compression stats -->
  <text x="60" y="335" font-family="monospace" font-size="14" fill="#ff6b35" font-weight="bold">COMPRESSION</text>
  <g font-family="monospace" font-size="13" fill="#e0e6f0">
    <text x="60" y="360">BF16: 282 GB (59 shards)</text>
    <text x="60" y="380">NVFP4: 75 GB (17 shards)</text>
    <text x="60" y="400" fill="#00d9ff" font-weight="bold">Ratio: 3.5×</text>
  </g>
  
  <text x="60" y="435" font-family="monospace" font-size="14" fill="#ff6b35" font-weight="bold">MEMORY FOOTPRINT</text>
  <g font-family="monospace" font-size="13" fill="#e0e6f0">
    <text x="60" y="460">Weights: 74.25 GiB</text>
    <text x="60" y="480">KV cache: 30.8 GiB</text>
    <text x="60" y="500" fill="#8a9bb8">KV tokens: 144,176</text>
    <text x="60" y="520" fill="#8a9bb8">Concurrency: 8.80x</text>
  </g>
  
  <!-- Right panel: Benchmark bar chart -->
  <text x="450" y="160" font-family="monospace" font-size="14" fill="#ff6b35" font-weight="bold">SMF-BENCH RESULTS: 74/181 (40.9%)</text>
  
  <!-- Bar chart background -->
  <line x1="450" y1="170" x2="450" y2="580" stroke="#3a4a7a" stroke-width="1.5"/>
  <line x1="450" y1="580" x2="1150" y2="580" stroke="#3a4a7a" stroke-width="1.5"/>
  
  <!-- Y-axis labels -->
  <g font-family="monospace" font-size="10" fill="#5a6a9a" text-anchor="end">
    <text x="445" y="174">100%</text>
    <text x="445" y="256">75%</text>
    <text x="445" y="338">50%</text>
    <text x="445" y="420">25%</text>
    <text x="445" y="583">0%</text>
  </g>
  
  <!-- Horizontal grid lines -->
  <g stroke="#1a2a5a" stroke-width="0.5" opacity="0.5">
    <line x1="450" y1="170" x2="1150" y2="170"/>
    <line x1="450" y1="252" x2="1150" y2="252"/>
    <line x1="450" y1="334" x2="1150" y2="334"/>
    <line x1="450" y1="416" x2="1150" y2="416"/>
  </g>
  <rect x="480" y="170.0" width="40" height="410.0" fill="#00d9ff" rx="2"/>
  <text x="500.0" y="165.0" font-family="monospace" font-size="10" fill="#00d9ff" text-anchor="middle" font-weight="bold">100%</text>
  <rect x="522" y="195.42000000000002" width="40" height="384.58" fill="#9370db" rx="2"/>
  <text x="542.0" y="190.42000000000002" font-family="monospace" font-size="10" fill="#9370db" text-anchor="middle">94%</text>
  <text x="520" y="598" font-family="monospace" font-size="9" fill="#8a9bb8" text-anchor="middle">agentic</text>
  <rect x="572" y="334.0" width="40" height="246.0" fill="#00d9ff" rx="2"/>
  <text x="592.0" y="329.0" font-family="monospace" font-size="10" fill="#00d9ff" text-anchor="middle" font-weight="bold">60%</text>
  <rect x="614" y="170.0" width="40" height="410.0" fill="#9370db" rx="2"/>
  <text x="634.0" y="165.0" font-family="monospace" font-size="10" fill="#9370db" text-anchor="middle">100%</text>
  <text x="612" y="598" font-family="monospace" font-size="9" fill="#8a9bb8" text-anchor="middle">writing</text>
  <rect x="664" y="320.46999999999997" width="40" height="259.53000000000003" fill="#00d9ff" rx="2"/>
  <text x="684.0" y="315.46999999999997" font-family="monospace" font-size="10" fill="#00d9ff" text-anchor="middle" font-weight="bold">63%</text>
  <rect x="706" y="265.53" width="40" height="314.47" fill="#9370db" rx="2"/>
  <text x="726.0" y="260.53" font-family="monospace" font-size="10" fill="#9370db" text-anchor="middle">77%</text>
  <text x="704" y="598" font-family="monospace" font-size="9" fill="#8a9bb8" text-anchor="middle">instruct</text>
  <rect x="756" y="320.46999999999997" width="40" height="259.53000000000003" fill="#00d9ff" rx="2"/>
  <text x="776.0" y="315.46999999999997" font-family="monospace" font-size="10" fill="#00d9ff" text-anchor="middle" font-weight="bold">63%</text>
  <rect x="798" y="238.47000000000003" width="40" height="341.53" fill="#9370db" rx="2"/>
  <text x="818.0" y="233.47000000000003" font-family="monospace" font-size="10" fill="#9370db" text-anchor="middle">83%</text>
  <text x="796" y="598" font-family="monospace" font-size="9" fill="#8a9bb8" text-anchor="middle">prose</text>
  <rect x="848" y="418.04999999999995" width="40" height="161.95000000000002" fill="#00d9ff" rx="2"/>
  <text x="868.0" y="413.04999999999995" font-family="monospace" font-size="10" fill="#00d9ff" text-anchor="middle" font-weight="bold">40%</text>
  <rect x="890" y="267.17" width="40" height="312.83" fill="#9370db" rx="2"/>
  <text x="910.0" y="262.17" font-family="monospace" font-size="10" fill="#9370db" text-anchor="middle">76%</text>
  <text x="888" y="598" font-family="monospace" font-size="9" fill="#8a9bb8" text-anchor="middle">reasonin</text>
  <rect x="940" y="552.53" width="40" height="27.470000000000002" fill="#00d9ff" rx="2"/>
  <text x="960.0" y="547.53" font-family="monospace" font-size="10" fill="#00d9ff" text-anchor="middle" font-weight="bold">7%</text>
  <rect x="982" y="470.53" width="40" height="109.47000000000001" fill="#9370db" rx="2"/>
  <text x="1002.0" y="465.53" font-family="monospace" font-size="10" fill="#9370db" text-anchor="middle">27%</text>
  <text x="980" y="598" font-family="monospace" font-size="9" fill="#8a9bb8" text-anchor="middle">math</text>
  <rect x="1032" y="580.0" width="40" height="0.0" fill="#3a4a7a" rx="2"/>
  <text x="1052.0" y="575.0" font-family="monospace" font-size="10" fill="#3a4a7a" text-anchor="middle" font-weight="bold">0%</text>
  <rect x="1074" y="539.0" width="40" height="41.0" fill="#9370db" rx="2"/>
  <text x="1094.0" y="534.0" font-family="monospace" font-size="10" fill="#9370db" text-anchor="middle">10%</text>
  <text x="1072" y="598" font-family="monospace" font-size="9" fill="#8a9bb8" text-anchor="middle">coding</text>
  <rect x="1124" y="580.0" width="40" height="0.0" fill="#3a4a7a" rx="2"/>
  <text x="1144.0" y="575.0" font-family="monospace" font-size="10" fill="#3a4a7a" text-anchor="middle" font-weight="bold">0%</text>
  <rect x="1166" y="580.0" width="40" height="0.0" fill="#3a4a7a" rx="2"/>
  <text x="1186.0" y="575.0" font-family="monospace" font-size="10" fill="#3a4a7a" text-anchor="middle">0%</text>
  <text x="1164" y="598" font-family="monospace" font-size="9" fill="#8a9bb8" text-anchor="middle">tool_cal</text>
  
  <!-- Legend -->
  <g font-family="monospace" font-size="11">
    <rect x="900" y="130" width="12" height="12" fill="#00d9ff" rx="2"/>
    <text x="918" y="140" fill="#e0e6f0">Mixtral-8x22B</text>
    <rect x="1030" y="130" width="12" height="12" fill="#9370db" rx="2"/>
    <text x="1048" y="140" fill="#e0e6f0">GPT-OSS-120B</text>
  </g>
  
  <!-- Bottom stats -->
  <g font-family="monospace" font-size="12" fill="#8a9bb8">
    <text x="60" y="610">vLLM 0.24.0 · compressed-tensors NVFP4 · FLASHINFER_CUTLASS · enforce-eager · 9.7 tok/s</text>
  </g>
</svg>