<svg xmlns="http://www.w3.org/2000/svg" viewBox="0 0 1200 630" width="1200" height="630">
  <defs>
    <linearGradient id="bg" x1="0" y1="0" x2="0" y2="1">
      <stop offset="0%" stop-color="#001F3F"/>
      <stop offset="55%" stop-color="#071018"/>
      <stop offset="100%" stop-color="#05060f"/>
    </linearGradient>
    <linearGradient id="curtain" x1="0" y1="0" x2="0" y2="1">
      <stop offset="0%" stop-color="#28ff96" stop-opacity="0.55"/>
      <stop offset="70%" stop-color="#28ff96" stop-opacity="0"/>
    </linearGradient>
    <radialGradient id="moon" cx="78%" cy="28%" r="18%">
      <stop offset="0%" stop-color="#e8eef8" stop-opacity="0.85"/>
      <stop offset="100%" stop-color="#e8eef8" stop-opacity="0"/>
    </radialGradient>
    <radialGradient id="gold" cx="18%" cy="82%" r="28%">
      <stop offset="0%" stop-color="#C9A96E" stop-opacity="0.50"/>
      <stop offset="100%" stop-color="#C9A96E" stop-opacity="0"/>
    </radialGradient>
    <radialGradient id="ember" cx="62%" cy="90%" r="36%">
      <stop offset="0%" stop-color="#ea580c" stop-opacity="0.28"/>
      <stop offset="100%" stop-color="#ea580c" stop-opacity="0"/>
    </radialGradient>
    <filter id="soft">
      <feGaussianBlur stdDeviation="22"/>
    </filter>
  </defs>
  <rect width="1200" height="630" fill="url(#bg)"/>
  <ellipse cx="936" cy="176" rx="90" ry="90" fill="url(#moon)"/>
  <rect x="80" y="0" width="70" height="360" fill="url(#curtain)" filter="url(#soft)" opacity="0.85"/>
  <rect x="200" y="0" width="90" height="400" fill="url(#curtain)" filter="url(#soft)"/>
  <rect x="360" y="0" width="60" height="320" fill="url(#curtain)" filter="url(#soft)" opacity="0.7"/>
  <rect x="480" y="0" width="110" height="380" fill="url(#curtain)" filter="url(#soft)"/>
  <rect x="640" y="0" width="50" height="300" fill="url(#curtain)" filter="url(#soft)" opacity="0.6"/>
  <rect x="760" y="0" width="80" height="340" fill="url(#curtain)" filter="url(#soft)" opacity="0.8"/>
  <ellipse cx="200" cy="530" rx="220" ry="120" fill="url(#gold)" filter="url(#soft)"/>
  <ellipse cx="740" cy="580" rx="320" ry="140" fill="url(#ember)" filter="url(#soft)"/>
  <polygon points="0,430 180,360 340,400 520,330 760,390 980,350 1200,410 1200,630 0,630" fill="#001F3F" opacity="0.92"/>
  <rect x="0" y="0" width="1200" height="630" fill="none" stroke="#C9A96E" stroke-opacity="0.18" stroke-width="2"/>
</svg>
