<?xml version="1.0" encoding="UTF-8"?>
<svg xmlns="http://www.w3.org/2000/svg" width="1200" height="624" viewBox="0 0 1200 624">
  <defs>
    <linearGradient id="bg" x1="0" y1="0" x2="1" y2="1">
      <stop offset="0%" stop-color="#0a0e1a"/>
      <stop offset="100%" stop-color="#06141e"/>
    </linearGradient>
    <radialGradient id="active" cx="50%" cy="50%" r="50%">
      <stop offset="0%" stop-color="#ffffff"/>
      <stop offset="40%" stop-color="#c8ff80"/>
      <stop offset="100%" stop-color="#76b900"/>
    </radialGradient>
    <filter id="glow" x="-40%" y="-40%" width="180%" height="180%">
      <feGaussianBlur stdDeviation="5" result="b"/>
      <feMerge><feMergeNode in="b"/><feMergeNode in="SourceGraphic"/></feMerge>
    </filter>
    <filter id="soft">
      <feGaussianBlur stdDeviation="22"/>
    </filter>
  </defs>
  <rect width="1200" height="624" fill="url(#bg)"/>
  <g stroke="#1a2a3a" stroke-opacity="0.32" stroke-width="1">
    <path d="M0 78 H1200"/><path d="M0 156 H1200"/><path d="M0 234 H1200"/><path d="M0 312 H1200"/><path d="M0 390 H1200"/><path d="M0 468 H1200"/><path d="M0 546 H1200"/>
    <path d="M100 0 V624"/><path d="M200 0 V624"/><path d="M300 0 V624"/><path d="M400 0 V624"/><path d="M500 0 V624"/><path d="M600 0 V624"/><path d="M700 0 V624"/><path d="M800 0 V624"/><path d="M900 0 V624"/><path d="M1000 0 V624"/><path d="M1100 0 V624"/>
  </g>
  <circle cx="180" cy="200" r="140" fill="#76b900" opacity="0.07" filter="url(#soft)"/>
  <circle cx="1000" cy="480" r="180" fill="#00d4aa" opacity="0.06" filter="url(#soft)"/>

  <text x="52" y="64" fill="#e8eef4" font-family="SF Pro Display, Helvetica Neue, Arial, sans-serif" font-size="34" font-weight="700">Laguna S 2.1-NVFP4 on DGX Spark</text>
  <text x="52" y="98" fill="#5a8a6a" font-family="SF Mono, Courier New, monospace" font-size="15">smf-bench Official A · strict_v01 · thinking off · coding-first local serve</text>

  <!-- left card -->
  <g transform="translate(52,130)">
    <rect width="360" height="250" rx="16" fill="#0f1824" stroke="#1f3a2a"/>
    <rect x="16" y="16" width="328" height="100" rx="12" fill="#121e2c" stroke="#76b900" stroke-opacity="0.5" filter="url(#glow)"/>
    <text x="32" y="48" fill="#76b900" font-family="SF Mono, monospace" font-size="12" letter-spacing="1.5">GB10 · SPARK-56BC</text>
    <text x="32" y="80" fill="#e8eef4" font-family="SF Pro Display, Arial, sans-serif" font-size="26" font-weight="700">vLLM 0.25.1 + DFlash</text>
    <text x="32" y="104" fill="#8ab89a" font-family="SF Mono, monospace" font-size="13">FlashInfer · NVFP4 · poolside_v1</text>
    <text x="24" y="150" fill="#c5d5cc" font-family="SF Mono, monospace" font-size="14">117.6B MoE · 8.5B active · SWA 3:1</text>
    <text x="24" y="178" fill="#c5d5cc" font-family="SF Mono, monospace" font-size="14">~67 GB weights · 256K context · util 0.82</text>
    <text x="24" y="206" fill="#c5d5cc" font-family="SF Mono, monospace" font-size="14">OpenAI API · :8888 · OpenMDW-1.1</text>
    <text x="24" y="234" fill="#76b900" font-family="SF Mono, monospace" font-size="14" font-weight="700">Wall: 32.4 min · 0 errors</text>
  </g>

  <!-- MoE grid -->
  <g transform="translate(440,130)">
    <rect width="280" height="250" rx="16" fill="#0f1824" stroke="#1a3344"/>
    <text x="18" y="28" fill="#5a8a6a" font-family="SF Mono, monospace" font-size="12" letter-spacing="1">10 / 256 EXPERTS ACTIVE</text>
    <g transform="translate(20,44)">
      <circle cx="20" cy="20" r="3.6" fill="#00ccff" fill-opacity="0.28"/><circle cx="34" cy="20" r="5.2" fill="url(#active)" filter="url(#glow)"/><circle cx="48" cy="20" r="3.6" fill="#00ccff" fill-opacity="0.28"/><circle cx="62" cy="20" r="3.6" fill="#00ccff" fill-opacity="0.28"/><circle cx="76" cy="20" r="3.6" fill="#00ccff" fill-opacity="0.28"/><circle cx="90" cy="20" r="3.6" fill="#00ccff" fill-opacity="0.28"/><circle cx="104" cy="20" r="3.6" fill="#00ccff" fill-opacity="0.28"/><circle cx="118" cy="20" r="5.2" fill="url(#active)" filter="url(#glow)"/><circle cx="132" cy="20" r="3.6" fill="#00ccff" fill-opacity="0.28"/><circle cx="146" cy="20" r="3.6" fill="#00ccff" fill-opacity="0.28"/><circle cx="160" cy="20" r="3.6" fill="#00ccff" fill-opacity="0.28"/><circle cx="174" cy="20" r="3.6" fill="#00ccff" fill-opacity="0.28"/><circle cx="188" cy="20" r="3.6" fill="#00ccff" fill-opacity="0.28"/><circle cx="202" cy="20" r="3.6" fill="#00ccff" fill-opacity="0.28"/><circle cx="216" cy="20" r="3.6" fill="#00ccff" fill-opacity="0.28"/><circle cx="230" cy="20" r="3.6" fill="#00ccff" fill-opacity="0.28"/><circle cx="20" cy="34" r="3.6" fill="#00ccff" fill-opacity="0.28"/><circle cx="34" cy="34" r="3.6" fill="#00ccff" fill-opacity="0.28"/><circle cx="48" cy="34" r="3.6" fill="#00ccff" fill-opacity="0.28"/><circle cx="62" cy="34" r="3.6" fill="#00ccff" fill-opacity="0.28"/><circle cx="76" cy="34" r="3.6" fill="#00ccff" fill-opacity="0.28"/><circle cx="90" cy="34" r="3.6" fill="#00ccff" fill-opacity="0.28"/><circle cx="104" cy="34" r="3.6" fill="#00ccff" fill-opacity="0.28"/><circle cx="118" cy="34" r="3.6" fill="#00ccff" fill-opacity="0.28"/><circle cx="132" cy="34" r="3.6" fill="#00ccff" fill-opacity="0.28"/><circle cx="146" cy="34" r="3.6" fill="#00ccff" fill-opacity="0.28"/><circle cx="160" cy="34" r="3.6" fill="#00ccff" fill-opacity="0.28"/><circle cx="174" cy="34" r="3.6" fill="#00ccff" fill-opacity="0.28"/><circle cx="188" cy="34" r="3.6" fill="#00ccff" fill-opacity="0.28"/><circle cx="202" cy="34" r="3.6" fill="#00ccff" fill-opacity="0.28"/><circle cx="216" cy="34" r="3.6" fill="#00ccff" fill-opacity="0.28"/><circle cx="230" cy="34" r="3.6" fill="#00ccff" fill-opacity="0.28"/><circle cx="20" cy="48" r="3.6" fill="#00ccff" fill-opacity="0.28"/><circle cx="34" cy="48" r="3.6" fill="#00ccff" fill-opacity="0.28"/><circle cx="48" cy="48" r="3.6" fill="#00ccff" fill-opacity="0.28"/><circle cx="62" cy="48" r="3.6" fill="#00ccff" fill-opacity="0.28"/><circle cx="76" cy="48" r="3.6" fill="#00ccff" fill-opacity="0.28"/><circle cx="90" cy="48" r="3.6" fill="#00ccff" fill-opacity="0.28"/><circle cx="104" cy="48" r="3.6" fill="#00ccff" fill-opacity="0.28"/><circle cx="118" cy="48" r="3.6" fill="#00ccff" fill-opacity="0.28"/><circle cx="132" cy="48" r="3.6" fill="#00ccff" fill-opacity="0.28"/><circle cx="146" cy="48" r="3.6" fill="#00ccff" fill-opacity="0.28"/><circle cx="160" cy="48" r="3.6" fill="#00ccff" fill-opacity="0.28"/><circle cx="174" cy="48" r="3.6" fill="#00ccff" fill-opacity="0.28"/><circle cx="188" cy="48" r="3.6" fill="#00ccff" fill-opacity="0.28"/><circle cx="202" cy="48" r="3.6" fill="#00ccff" fill-opacity="0.28"/><circle cx="216" cy="48" r="3.6" fill="#00ccff" fill-opacity="0.28"/><circle cx="230" cy="48" r="3.6" fill="#00ccff" fill-opacity="0.28"/><circle cx="20" cy="62" r="3.6" fill="#00ccff" fill-opacity="0.28"/><circle cx="34" cy="62" r="3.6" fill="#00ccff" fill-opacity="0.28"/><circle cx="48" cy="62" r="3.6" fill="#00ccff" fill-opacity="0.28"/><circle cx="62" cy="62" r="3.6" fill="#00ccff" fill-opacity="0.28"/><circle cx="76" cy="62" r="3.6" fill="#00ccff" fill-opacity="0.28"/><circle cx="90" cy="62" r="3.6" fill="#00ccff" fill-opacity="0.28"/><circle cx="104" cy="62" r="3.6" fill="#00ccff" fill-opacity="0.28"/><circle cx="118" cy="62" r="3.6" fill="#00ccff" fill-opacity="0.28"/><circle cx="132" cy="62" r="3.6" fill="#00ccff" fill-opacity="0.28"/><circle cx="146" cy="62" r="3.6" fill="#00ccff" fill-opacity="0.28"/><circle cx="160" cy="62" r="3.6" fill="#00ccff" fill-opacity="0.28"/><circle cx="174" cy="62" r="3.6" fill="#00ccff" fill-opacity="0.28"/><circle cx="188" cy="62" r="3.6" fill="#00ccff" fill-opacity="0.28"/><circle cx="202" cy="62" r="3.6" fill="#00ccff" fill-opacity="0.28"/><circle cx="216" cy="62" r="3.6" fill="#00ccff" fill-opacity="0.28"/><circle cx="230" cy="62" r="3.6" fill="#00ccff" fill-opacity="0.28"/><circle cx="20" cy="76" r="3.6" fill="#00ccff" fill-opacity="0.28"/><circle cx="34" cy="76" r="3.6" fill="#00ccff" fill-opacity="0.28"/><circle cx="48" cy="76" r="3.6" fill="#00ccff" fill-opacity="0.28"/><circle cx="62" cy="76" r="3.6" fill="#00ccff" fill-opacity="0.28"/><circle cx="76" cy="76" r="3.6" fill="#00ccff" fill-opacity="0.28"/><circle cx="90" cy="76" r="3.6" fill="#00ccff" fill-opacity="0.28"/><circle cx="104" cy="76" r="3.6" fill="#00ccff" fill-opacity="0.28"/><circle cx="118" cy="76" r="3.6" fill="#00ccff" fill-opacity="0.28"/><circle cx="132" cy="76" r="3.6" fill="#00ccff" fill-opacity="0.28"/><circle cx="146" cy="76" r="3.6" fill="#00ccff" fill-opacity="0.28"/><circle cx="160" cy="76" r="3.6" fill="#00ccff" fill-opacity="0.28"/><circle cx="174" cy="76" r="3.6" fill="#00ccff" fill-opacity="0.28"/><circle cx="188" cy="76" r="3.6" fill="#00ccff" fill-opacity="0.28"/><circle cx="202" cy="76" r="3.6" fill="#00ccff" fill-opacity="0.28"/><circle cx="216" cy="76" r="3.6" fill="#00ccff" fill-opacity="0.28"/><circle cx="230" cy="76" r="3.6" fill="#00ccff" fill-opacity="0.28"/><circle cx="20" cy="90" r="3.6" fill="#00ccff" fill-opacity="0.28"/><circle cx="34" cy="90" r="3.6" fill="#00ccff" fill-opacity="0.28"/><circle cx="48" cy="90" r="3.6" fill="#00ccff" fill-opacity="0.28"/><circle cx="62" cy="90" r="3.6" fill="#00ccff" fill-opacity="0.28"/><circle cx="76" cy="90" r="5.2" fill="url(#active)" filter="url(#glow)"/><circle cx="90" cy="90" r="3.6" fill="#00ccff" fill-opacity="0.28"/><circle cx="104" cy="90" r="3.6" fill="#00ccff" fill-opacity="0.28"/><circle cx="118" cy="90" r="3.6" fill="#00ccff" fill-opacity="0.28"/><circle cx="132" cy="90" r="3.6" fill="#00ccff" fill-opacity="0.28"/><circle cx="146" cy="90" r="3.6" fill="#00ccff" fill-opacity="0.28"/><circle cx="160" cy="90" r="3.6" fill="#00ccff" fill-opacity="0.28"/><circle cx="174" cy="90" r="3.6" fill="#00ccff" fill-opacity="0.28"/><circle cx="188" cy="90" r="3.6" fill="#00ccff" fill-opacity="0.28"/><circle cx="202" cy="90" r="5.2" fill="url(#active)" filter="url(#glow)"/><circle cx="216" cy="90" r="3.6" fill="#00ccff" fill-opacity="0.28"/><circle cx="230" cy="90" r="3.6" fill="#00ccff" fill-opacity="0.28"/><circle cx="20" cy="104" r="3.6" fill="#00ccff" fill-opacity="0.28"/><circle cx="34" cy="104" r="3.6" fill="#00ccff" fill-opacity="0.28"/><circle cx="48" cy="104" r="3.6" fill="#00ccff" fill-opacity="0.28"/><circle cx="62" cy="104" r="3.6" fill="#00ccff" fill-opacity="0.28"/><circle cx="76" cy="104" r="3.6" fill="#00ccff" fill-opacity="0.28"/><circle cx="90" cy="104" r="3.6" fill="#00ccff" fill-opacity="0.28"/><circle cx="104" cy="104" r="3.6" fill="#00ccff" fill-opacity="0.28"/><circle cx="118" cy="104" r="3.6" fill="#00ccff" fill-opacity="0.28"/><circle cx="132" cy="104" r="3.6" fill="#00ccff" fill-opacity="0.28"/><circle cx="146" cy="104" r="3.6" fill="#00ccff" fill-opacity="0.28"/><circle cx="160" cy="104" r="3.6" fill="#00ccff" fill-opacity="0.28"/><circle cx="174" cy="104" r="3.6" fill="#00ccff" fill-opacity="0.28"/><circle cx="188" cy="104" r="3.6" fill="#00ccff" fill-opacity="0.28"/><circle cx="202" cy="104" r="3.6" fill="#00ccff" fill-opacity="0.28"/><circle cx="216" cy="104" r="5.2" fill="url(#active)" filter="url(#glow)"/><circle cx="230" cy="104" r="3.6" fill="#00ccff" fill-opacity="0.28"/><circle cx="20" cy="118" r="3.6" fill="#00ccff" fill-opacity="0.28"/><circle cx="34" cy="118" r="3.6" fill="#00ccff" fill-opacity="0.28"/><circle cx="48" cy="118" r="3.6" fill="#00ccff" fill-opacity="0.28"/><circle cx="62" cy="118" r="3.6" fill="#00ccff" fill-opacity="0.28"/><circle cx="76" cy="118" r="3.6" fill="#00ccff" fill-opacity="0.28"/><circle cx="90" cy="118" r="3.6" fill="#00ccff" fill-opacity="0.28"/><circle cx="104" cy="118" r="3.6" fill="#00ccff" fill-opacity="0.28"/><circle cx="118" cy="118" r="3.6" fill="#00ccff" fill-opacity="0.28"/><circle cx="132" cy="118" r="5.2" fill="url(#active)" filter="url(#glow)"/><circle cx="146" cy="118" r="3.6" fill="#00ccff" fill-opacity="0.28"/><circle cx="160" cy="118" r="3.6" fill="#00ccff" fill-opacity="0.28"/><circle cx="174" cy="118" r="3.6" fill="#00ccff" fill-opacity="0.28"/><circle cx="188" cy="118" r="3.6" fill="#00ccff" fill-opacity="0.28"/><circle cx="202" cy="118" r="3.6" fill="#00ccff" fill-opacity="0.28"/><circle cx="216" cy="118" r="3.6" fill="#00ccff" fill-opacity="0.28"/><circle cx="230" cy="118" r="3.6" fill="#00ccff" fill-opacity="0.28"/><circle cx="20" cy="132" r="3.6" fill="#00ccff" fill-opacity="0.28"/><circle cx="34" cy="132" r="3.6" fill="#00ccff" fill-opacity="0.28"/><circle cx="48" cy="132" r="3.6" fill="#00ccff" fill-opacity="0.28"/><circle cx="62" cy="132" r="3.6" fill="#00ccff" fill-opacity="0.28"/><circle cx="76" cy="132" r="3.6" fill="#00ccff" fill-opacity="0.28"/><circle cx="90" cy="132" r="3.6" fill="#00ccff" fill-opacity="0.28"/><circle cx="104" cy="132" r="3.6" fill="#00ccff" fill-opacity="0.28"/><circle cx="118" cy="132" r="3.6" fill="#00ccff" fill-opacity="0.28"/><circle cx="132" cy="132" r="3.6" fill="#00ccff" fill-opacity="0.28"/><circle cx="146" cy="132" r="3.6" fill="#00ccff" fill-opacity="0.28"/><circle cx="160" cy="132" r="3.6" fill="#00ccff" fill-opacity="0.28"/><circle cx="174" cy="132" r="3.6" fill="#00ccff" fill-opacity="0.28"/><circle cx="188" cy="132" r="3.6" fill="#00ccff" fill-opacity="0.28"/><circle cx="202" cy="132" r="3.6" fill="#00ccff" fill-opacity="0.28"/><circle cx="216" cy="132" r="3.6" fill="#00ccff" fill-opacity="0.28"/><circle cx="230" cy="132" r="3.6" fill="#00ccff" fill-opacity="0.28"/><circle cx="20" cy="146" r="5.2" fill="url(#active)" filter="url(#glow)"/><circle cx="34" cy="146" r="3.6" fill="#00ccff" fill-opacity="0.28"/><circle cx="48" cy="146" r="3.6" fill="#00ccff" fill-opacity="0.28"/><circle cx="62" cy="146" r="3.6" fill="#00ccff" fill-opacity="0.28"/><circle cx="76" cy="146" r="3.6" fill="#00ccff" fill-opacity="0.28"/><circle cx="90" cy="146" r="3.6" fill="#00ccff" fill-opacity="0.28"/><circle cx="104" cy="146" r="3.6" fill="#00ccff" fill-opacity="0.28"/><circle cx="118" cy="146" r="3.6" fill="#00ccff" fill-opacity="0.28"/><circle cx="132" cy="146" r="3.6" fill="#00ccff" fill-opacity="0.28"/><circle cx="146" cy="146" r="3.6" fill="#00ccff" fill-opacity="0.28"/><circle cx="160" cy="146" r="3.6" fill="#00ccff" fill-opacity="0.28"/><circle cx="174" cy="146" r="3.6" fill="#00ccff" fill-opacity="0.28"/><circle cx="188" cy="146" r="3.6" fill="#00ccff" fill-opacity="0.28"/><circle cx="202" cy="146" r="3.6" fill="#00ccff" fill-opacity="0.28"/><circle cx="216" cy="146" r="3.6" fill="#00ccff" fill-opacity="0.28"/><circle cx="230" cy="146" r="3.6" fill="#00ccff" fill-opacity="0.28"/><circle cx="20" cy="160" r="3.6" fill="#00ccff" fill-opacity="0.28"/><circle cx="34" cy="160" r="3.6" fill="#00ccff" fill-opacity="0.28"/><circle cx="48" cy="160" r="3.6" fill="#00ccff" fill-opacity="0.28"/><circle cx="62" cy="160" r="3.6" fill="#00ccff" fill-opacity="0.28"/><circle cx="76" cy="160" r="3.6" fill="#00ccff" fill-opacity="0.28"/><circle cx="90" cy="160" r="3.6" fill="#00ccff" fill-opacity="0.28"/><circle cx="104" cy="160" r="3.6" fill="#00ccff" fill-opacity="0.28"/><circle cx="118" cy="160" r="3.6" fill="#00ccff" fill-opacity="0.28"/><circle cx="132" cy="160" r="3.6" fill="#00ccff" fill-opacity="0.28"/><circle cx="146" cy="160" r="3.6" fill="#00ccff" fill-opacity="0.28"/><circle cx="160" cy="160" r="3.6" fill="#00ccff" fill-opacity="0.28"/><circle cx="174" cy="160" r="3.6" fill="#00ccff" fill-opacity="0.28"/><circle cx="188" cy="160" r="3.6" fill="#00ccff" fill-opacity="0.28"/><circle cx="202" cy="160" r="3.6" fill="#00ccff" fill-opacity="0.28"/><circle cx="216" cy="160" r="3.6" fill="#00ccff" fill-opacity="0.28"/><circle cx="230" cy="160" r="3.6" fill="#00ccff" fill-opacity="0.28"/><circle cx="20" cy="174" r="3.6" fill="#00ccff" fill-opacity="0.28"/><circle cx="34" cy="174" r="3.6" fill="#00ccff" fill-opacity="0.28"/><circle cx="48" cy="174" r="3.6" fill="#00ccff" fill-opacity="0.28"/><circle cx="62" cy="174" r="3.6" fill="#00ccff" fill-opacity="0.28"/><circle cx="76" cy="174" r="3.6" fill="#00ccff" fill-opacity="0.28"/><circle cx="90" cy="174" r="3.6" fill="#00ccff" fill-opacity="0.28"/><circle cx="104" cy="174" r="3.6" fill="#00ccff" fill-opacity="0.28"/><circle cx="118" cy="174" r="3.6" fill="#00ccff" fill-opacity="0.28"/><circle cx="132" cy="174" r="3.6" fill="#00ccff" fill-opacity="0.28"/><circle cx="146" cy="174" r="3.6" fill="#00ccff" fill-opacity="0.28"/><circle cx="160" cy="174" r="3.6" fill="#00ccff" fill-opacity="0.28"/><circle cx="174" cy="174" r="3.6" fill="#00ccff" fill-opacity="0.28"/><circle cx="188" cy="174" r="3.6" fill="#00ccff" fill-opacity="0.28"/><circle cx="202" cy="174" r="3.6" fill="#00ccff" fill-opacity="0.28"/><circle cx="216" cy="174" r="3.6" fill="#00ccff" fill-opacity="0.28"/><circle cx="230" cy="174" r="3.6" fill="#00ccff" fill-opacity="0.28"/><circle cx="20" cy="188" r="3.6" fill="#00ccff" fill-opacity="0.28"/><circle cx="34" cy="188" r="3.6" fill="#00ccff" fill-opacity="0.28"/><circle cx="48" cy="188" r="3.6" fill="#00ccff" fill-opacity="0.28"/><circle cx="62" cy="188" r="3.6" fill="#00ccff" fill-opacity="0.28"/><circle cx="76" cy="188" r="3.6" fill="#00ccff" fill-opacity="0.28"/><circle cx="90" cy="188" r="3.6" fill="#00ccff" fill-opacity="0.28"/><circle cx="104" cy="188" r="3.6" fill="#00ccff" fill-opacity="0.28"/><circle cx="118" cy="188" r="3.6" fill="#00ccff" fill-opacity="0.28"/><circle cx="132" cy="188" r="3.6" fill="#00ccff" fill-opacity="0.28"/><circle cx="146" cy="188" r="3.6" fill="#00ccff" fill-opacity="0.28"/><circle cx="160" cy="188" r="3.6" fill="#00ccff" fill-opacity="0.28"/><circle cx="174" cy="188" r="3.6" fill="#00ccff" fill-opacity="0.28"/><circle cx="188" cy="188" r="3.6" fill="#00ccff" fill-opacity="0.28"/><circle cx="202" cy="188" r="3.6" fill="#00ccff" fill-opacity="0.28"/><circle cx="216" cy="188" r="3.6" fill="#00ccff" fill-opacity="0.28"/><circle cx="230" cy="188" r="3.6" fill="#00ccff" fill-opacity="0.28"/><circle cx="20" cy="202" r="3.6" fill="#00ccff" fill-opacity="0.28"/><circle cx="34" cy="202" r="3.6" fill="#00ccff" fill-opacity="0.28"/><circle cx="48" cy="202" r="3.6" fill="#00ccff" fill-opacity="0.28"/><circle cx="62" cy="202" r="3.6" fill="#00ccff" fill-opacity="0.28"/><circle cx="76" cy="202" r="3.6" fill="#00ccff" fill-opacity="0.28"/><circle cx="90" cy="202" r="3.6" fill="#00ccff" fill-opacity="0.28"/><circle cx="104" cy="202" r="5.2" fill="url(#active)" filter="url(#glow)"/><circle cx="118" cy="202" r="3.6" fill="#00ccff" fill-opacity="0.28"/><circle cx="132" cy="202" r="3.6" fill="#00ccff" fill-opacity="0.28"/><circle cx="146" cy="202" r="3.6" fill="#00ccff" fill-opacity="0.28"/><circle cx="160" cy="202" r="3.6" fill="#00ccff" fill-opacity="0.28"/><circle cx="174" cy="202" r="3.6" fill="#00ccff" fill-opacity="0.28"/><circle cx="188" cy="202" r="3.6" fill="#00ccff" fill-opacity="0.28"/><circle cx="202" cy="202" r="3.6" fill="#00ccff" fill-opacity="0.28"/><circle cx="216" cy="202" r="3.6" fill="#00ccff" fill-opacity="0.28"/><circle cx="230" cy="202" r="3.6" fill="#00ccff" fill-opacity="0.28"/><circle cx="20" cy="216" r="3.6" fill="#00ccff" fill-opacity="0.28"/><circle cx="34" cy="216" r="3.6" fill="#00ccff" fill-opacity="0.28"/><circle cx="48" cy="216" r="3.6" fill="#00ccff" fill-opacity="0.28"/><circle cx="62" cy="216" r="3.6" fill="#00ccff" fill-opacity="0.28"/><circle cx="76" cy="216" r="3.6" fill="#00ccff" fill-opacity="0.28"/><circle cx="90" cy="216" r="3.6" fill="#00ccff" fill-opacity="0.28"/><circle cx="104" cy="216" r="3.6" fill="#00ccff" fill-opacity="0.28"/><circle cx="118" cy="216" r="3.6" fill="#00ccff" fill-opacity="0.28"/><circle cx="132" cy="216" r="3.6" fill="#00ccff" fill-opacity="0.28"/><circle cx="146" cy="216" r="3.6" fill="#00ccff" fill-opacity="0.28"/><circle cx="160" cy="216" r="3.6" fill="#00ccff" fill-opacity="0.28"/><circle cx="174" cy="216" r="3.6" fill="#00ccff" fill-opacity="0.28"/><circle cx="188" cy="216" r="3.6" fill="#00ccff" fill-opacity="0.28"/><circle cx="202" cy="216" r="3.6" fill="#00ccff" fill-opacity="0.28"/><circle cx="216" cy="216" r="3.6" fill="#00ccff" fill-opacity="0.28"/><circle cx="230" cy="216" r="3.6" fill="#00ccff" fill-opacity="0.28"/><circle cx="20" cy="230" r="3.6" fill="#00ccff" fill-opacity="0.28"/><circle cx="34" cy="230" r="3.6" fill="#00ccff" fill-opacity="0.28"/><circle cx="48" cy="230" r="3.6" fill="#00ccff" fill-opacity="0.28"/><circle cx="62" cy="230" r="5.2" fill="url(#active)" filter="url(#glow)"/><circle cx="76" cy="230" r="3.6" fill="#00ccff" fill-opacity="0.28"/><circle cx="90" cy="230" r="5.2" fill="url(#active)" filter="url(#glow)"/><circle cx="104" cy="230" r="3.6" fill="#00ccff" fill-opacity="0.28"/><circle cx="118" cy="230" r="3.6" fill="#00ccff" fill-opacity="0.28"/><circle cx="132" cy="230" r="3.6" fill="#00ccff" fill-opacity="0.28"/><circle cx="146" cy="230" r="3.6" fill="#00ccff" fill-opacity="0.28"/><circle cx="160" cy="230" r="3.6" fill="#00ccff" fill-opacity="0.28"/><circle cx="174" cy="230" r="3.6" fill="#00ccff" fill-opacity="0.28"/><circle cx="188" cy="230" r="3.6" fill="#00ccff" fill-opacity="0.28"/><circle cx="202" cy="230" r="3.6" fill="#00ccff" fill-opacity="0.28"/><circle cx="216" cy="230" r="3.6" fill="#00ccff" fill-opacity="0.28"/><circle cx="230" cy="230" r="3.6" fill="#00ccff" fill-opacity="0.28"/>
    </g>
    <text x="18" y="232" fill="#8ab89a" font-family="SF Mono, monospace" font-size="12">+ 1 shared expert · native NVFP4</text>
  </g>

  <!-- bars -->
  <g transform="translate(750,130)">
    <rect width="400" height="250" rx="16" fill="#0f1824" stroke="#1f3a2a"/>
    <text x="18" y="28" fill="#5a8a6a" font-family="SF Mono, monospace" font-size="12" letter-spacing="1">OFFICIAL A SUITE PASS RATES</text>
    <g transform="translate(18,48)">
      
    <text x="0" y="12" fill="#9bb0a4" font-family="SF Mono, monospace" font-size="13">Coding</text>
    <rect x="110" y="0" width="240" height="16" rx="4" fill="#15202c"/>
    <rect x="110" y="0" width="192" height="16" rx="4" fill="#76b900" filter="url(#glow)"/>
    <text x="360" y="12" fill="#e8eef4" font-family="SF Mono, monospace" font-size="13" font-weight="700">80%</text>
    
    <text x="0" y="40" fill="#9bb0a4" font-family="SF Mono, monospace" font-size="13">Instruction</text>
    <rect x="110" y="28" width="240" height="16" rx="4" fill="#15202c"/>
    <rect x="110" y="28" width="216" height="16" rx="4" fill="#00d4aa" filter="url(#glow)"/>
    <text x="360" y="40" fill="#e8eef4" font-family="SF Mono, monospace" font-size="13" font-weight="700">90%</text>
    
    <text x="0" y="68" fill="#9bb0a4" font-family="SF Mono, monospace" font-size="13">Tools</text>
    <rect x="110" y="56" width="240" height="16" rx="4" fill="#15202c"/>
    <rect x="110" y="56" width="240" height="16" rx="4" fill="#76b900" filter="url(#glow)"/>
    <text x="360" y="68" fill="#e8eef4" font-family="SF Mono, monospace" font-size="13" font-weight="700">100%</text>
    
    <text x="0" y="96" fill="#9bb0a4" font-family="SF Mono, monospace" font-size="13">Prose</text>
    <rect x="110" y="84" width="240" height="16" rx="4" fill="#15202c"/>
    <rect x="110" y="84" width="184" height="16" rx="4" fill="#4aa3a0" filter="url(#glow)"/>
    <text x="360" y="96" fill="#e8eef4" font-family="SF Mono, monospace" font-size="13" font-weight="700">77%</text>
    
    <text x="0" y="124" fill="#9bb0a4" font-family="SF Mono, monospace" font-size="13">Reasoning</text>
    <rect x="110" y="112" width="240" height="16" rx="4" fill="#15202c"/>
    <rect x="110" y="112" width="160" height="16" rx="4" fill="#3d8a7a" filter="url(#glow)"/>
    <text x="360" y="124" fill="#e8eef4" font-family="SF Mono, monospace" font-size="13" font-weight="700">67%</text>
    
    <text x="0" y="152" fill="#9bb0a4" font-family="SF Mono, monospace" font-size="13">Writing</text>
    <rect x="110" y="140" width="240" height="16" rx="4" fill="#15202c"/>
    <rect x="110" y="140" width="144" height="16" rx="4" fill="#2f6f66" filter="url(#glow)"/>
    <text x="360" y="152" fill="#e8eef4" font-family="SF Mono, monospace" font-size="13" font-weight="700">60%</text>
    
    <text x="0" y="180" fill="#9bb0a4" font-family="SF Mono, monospace" font-size="13">Math</text>
    <rect x="110" y="168" width="240" height="16" rx="4" fill="#15202c"/>
    <rect x="110" y="168" width="64" height="16" rx="4" fill="#c45c26" filter="url(#glow)"/>
    <text x="360" y="180" fill="#e8eef4" font-family="SF Mono, monospace" font-size="13" font-weight="700">27%</text>
    
    </g>
  </g>

  <!-- bottom stats -->
  <g transform="translate(52,420)">
    <rect width="1096" height="160" rx="16" fill="#0f1824" stroke="#1f3a2a"/>
    
    <g transform="translate(40, 36)">
      <text fill="#5a8a6a" font-family="SF Mono, monospace" font-size="12" letter-spacing="1">OVERALL</text>
      <text y="42" fill="#e8eef4" font-family="SF Pro Display, Arial, sans-serif" font-size="32" font-weight="700">68.2%</text>
      <text y="68" fill="#8ab89a" font-family="SF Mono, monospace" font-size="12">107 / 157 pass</text>
    </g>
    <g transform="translate(220, 36)">
      <text fill="#5a8a6a" font-family="SF Mono, monospace" font-size="12" letter-spacing="1">CODING</text>
      <text y="42" fill="#e8eef4" font-family="SF Pro Display, Arial, sans-serif" font-size="32" font-weight="700">80%</text>
      <text y="68" fill="#8ab89a" font-family="SF Mono, monospace" font-size="12">24/30 unit_test</text>
    </g>
    <g transform="translate(400, 36)">
      <text fill="#5a8a6a" font-family="SF Mono, monospace" font-size="12" letter-spacing="1">SYNTAX FLOOR</text>
      <text y="42" fill="#e8eef4" font-family="SF Pro Display, Arial, sans-serif" font-size="32" font-weight="700">2 fails</text>
      <text y="68" fill="#8ab89a" font-family="SF Mono, monospace" font-size="12">SyntaxError only</text>
    </g>
    <g transform="translate(580, 36)">
      <text fill="#5a8a6a" font-family="SF Mono, monospace" font-size="12" letter-spacing="1">TOOLS</text>
      <text y="42" fill="#e8eef4" font-family="SF Pro Display, Arial, sans-serif" font-size="32" font-weight="700">100%</text>
      <text y="68" fill="#8ab89a" font-family="SF Mono, monospace" font-size="12">poolside_v1</text>
    </g>
    <g transform="translate(760, 36)">
      <text fill="#5a8a6a" font-family="SF Mono, monospace" font-size="12" letter-spacing="1">INSTRUCTION</text>
      <text y="42" fill="#e8eef4" font-family="SF Pro Display, Arial, sans-serif" font-size="32" font-weight="700">90%</text>
      <text y="68" fill="#8ab89a" font-family="SF Mono, monospace" font-size="12">27 / 30</text>
    </g>
    <g transform="translate(940, 36)">
      <text fill="#5a8a6a" font-family="SF Mono, monospace" font-size="12" letter-spacing="1">MATH</text>
      <text y="42" fill="#e8eef4" font-family="SF Pro Display, Arial, sans-serif" font-size="32" font-weight="700">26.7%</text>
      <text y="68" fill="#8ab89a" font-family="SF Mono, monospace" font-size="12">thinking-off arm</text>
    </g>
  </g>
</svg>
