<svg xmlns="http://www.w3.org/2000/svg" viewBox="0 0 1200 630" width="1200" height="630">
  <defs>
    <linearGradient id="bg" x1="0%" y1="0%" x2="100%" y2="100%">
      <stop offset="0%" stop-color="#0a0e27"/>
      <stop offset="50%" stop-color="#0d1b3e"/>
      <stop offset="100%" stop-color="#061528"/>
    </linearGradient>
  </defs>
  
  <!-- Background -->
  <rect width="1200" height="630" fill="url(#bg)"/>
  
  <!-- Grid lines -->
  <g stroke="#1a2a5a" stroke-width="0.5" opacity="0.3">
    <line x1="0" y1="100" x2="1200" y2="100"/>
    <line x1="0" y1="200" x2="1200" y2="200"/>
    <line x1="0" y1="300" x2="1200" y2="300"/>
    <line x1="0" y1="400" x2="1200" y2="400"/>
    <line x1="0" y1="500" x2="1200" y2="500"/>
    <line x1="200" y1="0" x2="200" y2="630"/>
    <line x1="400" y1="0" x2="400" y2="630"/>
    <line x1="600" y1="0" x2="600" y2="630"/>
    <line x1="800" y1="0" x2="800" y2="630"/>
    <line x1="1000" y1="0" x2="1000" y2="630"/>
  </g>
  
  <!-- Title -->
  <text x="60" y="55" font-family="monospace" font-size="26" fill="#ff6b35" font-weight="bold">SMF CLEARINGHOUSE</text>
  <text x="60" y="85" font-family="sans-serif" font-size="30" fill="#e0e6f0" font-weight="bold">Mistral-Large-2411 NVFP4 on DGX Spark</text>
  <text x="60" y="115" font-family="sans-serif" font-size="18" fill="#8a9bb8">123B dense · all params active · FlashInferCutlass (no MARLIN crash) · Day 4 of 10</text>
  
  <!-- Left panel: Architecture - Dense vs MoE -->
  <text x="60" y="160" font-family="monospace" font-size="14" fill="#ff6b35" font-weight="bold">DENSE ARCHITECTURE: 123B ALL ACTIVE</text>
  
  <!-- Dense block (all lit) -->
  <rect x="60" y="180" width="310" height="30" rx="4" fill="#ff6b35" opacity="0.25" stroke="#ff6b35" stroke-width="1.5"/>
  <text x="215" y="200" font-family="monospace" font-size="11" fill="#ff6b35" text-anchor="middle">ALL 123B PARAMETERS ACTIVE (every token)</text>
  
  <!-- Layer diagram -->
  <g font-family="monospace" font-size="9" fill="#5a6a9a">
    <rect x="60" y="220" width="310" height="16" rx="2" fill="#ff6b35" opacity="0.12" stroke="#ff6b35" stroke-width="0.5"/>
    <text x="215" y="231" text-anchor="middle">Layer 1 — all neurons active</text>
    <rect x="60" y="240" width="310" height="16" rx="2" fill="#ff6b35" opacity="0.12" stroke="#ff6b35" stroke-width="0.5"/>
    <text x="215" y="251" text-anchor="middle">Layer 2 — all neurons active</text>
    <rect x="60" y="260" width="310" height="16" rx="2" fill="#ff6b35" opacity="0.12" stroke="#ff6b35" stroke-width="0.5"/>
    <text x="215" y="271" text-anchor="middle">Layer 3 — all neurons active</text>
    <rect x="60" y="280" width="310" height="16" rx="2" fill="#ff6b35" opacity="0.12" stroke="#ff6b35" stroke-width="0.5"/>
    <text x="215" y="291" text-anchor="middle">Layer 4 — all neurons active</text>
    <rect x="60" y="300" width="310" height="16" rx="2" fill="#ff6b35" opacity="0.12" stroke="#ff6b35" stroke-width="0.5"/>
    <text x="215" y="311" text-anchor="middle">Layer 5 — all neurons active</text>
    <rect x="60" y="320" width="310" height="16" rx="2" fill="#ff6b35" opacity="0.12" stroke="#ff6b35" stroke-width="0.5"/>
    <text x="215" y="331" text-anchor="middle">Layer 6 — all neurons active</text>
    <rect x="60" y="340" width="310" height="16" rx="2" fill="#ff6b35" opacity="0.12" stroke="#ff6b35" stroke-width="0.5"/>
    <text x="215" y="351" text-anchor="middle">Layer 7 — all neurons active</text>
    <rect x="60" y="360" width="310" height="16" rx="2" fill="#ff6b35" opacity="0.12" stroke="#ff6b35" stroke-width="0.5"/>
    <text x="215" y="371" text-anchor="middle">Layer 8 — all neurons active</text>
    <text x="215" y="390" text-anchor="middle" fill="#8a9bb8" font-size="10">...88 layers total, all dense...</text>
  </g>
  
  <!-- Compression -->
  <text x="60" y="420" font-family="monospace" font-size="14" fill="#ff6b35" font-weight="bold">COMPRESSION</text>
  <g font-family="monospace" font-size="12" fill="#e0e6f0">
    <text x="60" y="442">BF16: ~246 GB (102 shards)</text>
    <text x="60" y="462">NVFP4 W4A4: 65 GB (15 shards)</text>
    <text x="60" y="482" fill="#00d9ff" font-weight="bold">Ratio: 3.8×</text>
  </g>
  
  <!-- Key stats -->
  <text x="60" y="515" font-family="monospace" font-size="14" fill="#ff6b35" font-weight="bold">SERVING</text>
  <g font-family="monospace" font-size="11" fill="#e0e6f0">
    <text x="60" y="537">Kernel: FlashInferCutlassNvFp4</text>
    <text x="60" y="555">KV cache: 32.96 GiB / 98K tokens</text>
    <text x="60" y="573" fill="#00ff88">No MARLIN crash ✓ (dense = safe)</text>
  </g>
  
  <!-- Right panel: Benchmark bar chart -->
  <text x="450" y="160" font-family="monospace" font-size="14" fill="#ff6b35" font-weight="bold">SMF-BENCH RESULTS: 102/181 (56.4%) — BEST CODING SCORE</text>
  
  <!-- Bar chart -->
  <line x1="450" y1="170" x2="450" y2="560" stroke="#3a4a7a" stroke-width="1.5"/>
  <line x1="450" y1="560" x2="1150" y2="560" stroke="#3a4a7a" stroke-width="1.5"/>
  
  <!-- Y-axis labels -->
  <g font-family="monospace" font-size="10" fill="#5a6a9a" text-anchor="end">
    <text x="445" y="174">100%</text>
    <text x="445" y="272">75%</text>
    <text x="445" y="370">50%</text>
    <text x="445" y="468">25%</text>
    <text x="445" y="563">0%</text>
  </g>
  
  <!-- Grid lines -->
  <g stroke="#1a2a5a" stroke-width="0.5" opacity="0.5">
    <line x1="450" y1="170" x2="1150" y2="170"/>
    <line x1="450" y1="268" x2="1150" y2="268"/>
    <line x1="450" y1="366" x2="1150" y2="366"/>
    <line x1="450" y1="464" x2="1150" y2="464"/>
  </g>
  <rect x="475" y="218.75" width="22" height="341.25" fill="#ff6b35" rx="1.5"/>
  <text x="486.0" y="215.75" font-family="monospace" font-size="8" fill="#ff6b35" text-anchor="middle" font-weight="bold">88</text>
  <rect x="500" y="194.18" width="22" height="365.82" fill="#9370db" rx="1.5"/>
  <text x="511.0" y="191.18" font-family="monospace" font-size="8" fill="#9370db" text-anchor="middle" font-weight="bold">94</text>
  <rect x="525" y="170.0" width="22" height="390.0" fill="#00d9ff" rx="1.5"/>
  <text x="536.0" y="167.0" font-family="monospace" font-size="8" fill="#00d9ff" text-anchor="middle" font-weight="bold">100</text>
  <rect x="550" y="170.0" width="22" height="390.0" fill="#00ff88" rx="1.5"/>
  <text x="561.0" y="167.0" font-family="monospace" font-size="8" fill="#00ff88" text-anchor="middle" font-weight="bold">100</text>
  <text x="519" y="578" font-family="monospace" font-size="9" fill="#8a9bb8" text-anchor="middle">agentic</text>
  <rect x="584" y="170.0" width="22" height="390.0" fill="#ff6b35" rx="1.5"/>
  <text x="595.0" y="167.0" font-family="monospace" font-size="8" fill="#ff6b35" text-anchor="middle" font-weight="bold">100</text>
  <rect x="609" y="170.0" width="22" height="390.0" fill="#9370db" rx="1.5"/>
  <text x="620.0" y="167.0" font-family="monospace" font-size="8" fill="#9370db" text-anchor="middle" font-weight="bold">100</text>
  <rect x="634" y="326.0" width="22" height="234.0" fill="#00d9ff" rx="1.5"/>
  <text x="645.0" y="323.0" font-family="monospace" font-size="8" fill="#00d9ff" text-anchor="middle" font-weight="bold">60</text>
  <rect x="659" y="170.0" width="22" height="390.0" fill="#00ff88" rx="1.5"/>
  <text x="670.0" y="167.0" font-family="monospace" font-size="8" fill="#00ff88" text-anchor="middle" font-weight="bold">100</text>
  <text x="628" y="578" font-family="monospace" font-size="9" fill="#8a9bb8" text-anchor="middle">writing</text>
  <rect x="693" y="221.87" width="22" height="338.13" fill="#ff6b35" rx="1.5"/>
  <text x="704.0" y="218.87" font-family="monospace" font-size="8" fill="#ff6b35" text-anchor="middle" font-weight="bold">87</text>
  <rect x="718" y="260.87" width="22" height="299.13" fill="#9370db" rx="1.5"/>
  <text x="729.0" y="257.87" font-family="monospace" font-size="8" fill="#9370db" text-anchor="middle" font-weight="bold">77</text>
  <rect x="743" y="313.13" width="22" height="246.87" fill="#00d9ff" rx="1.5"/>
  <text x="754.0" y="310.13" font-family="monospace" font-size="8" fill="#00d9ff" text-anchor="middle" font-weight="bold">63</text>
  <rect x="768" y="547.13" width="22" height="12.870000000000001" fill="#00ff88" rx="1.5"/>
  <text x="779.0" y="544.13" font-family="monospace" font-size="8" fill="#00ff88" text-anchor="middle" font-weight="bold">3</text>
  <text x="737" y="578" font-family="monospace" font-size="9" fill="#8a9bb8" text-anchor="middle">instruct</text>
  <rect x="802" y="221.87" width="22" height="338.13" fill="#ff6b35" rx="1.5"/>
  <text x="813.0" y="218.87" font-family="monospace" font-size="8" fill="#ff6b35" text-anchor="middle" font-weight="bold">87</text>
  <rect x="827" y="235.13" width="22" height="324.87" fill="#9370db" rx="1.5"/>
  <text x="838.0" y="232.13" font-family="monospace" font-size="8" fill="#9370db" text-anchor="middle" font-weight="bold">83</text>
  <rect x="852" y="313.13" width="22" height="246.87" fill="#00d9ff" rx="1.5"/>
  <text x="863.0" y="310.13" font-family="monospace" font-size="8" fill="#00d9ff" text-anchor="middle" font-weight="bold">63</text>
  <rect x="877" y="533.87" width="22" height="26.130000000000003" fill="#00ff88" rx="1.5"/>
  <text x="888.0" y="530.87" font-family="monospace" font-size="8" fill="#00ff88" text-anchor="middle" font-weight="bold">7</text>
  <text x="846" y="578" font-family="monospace" font-size="9" fill="#8a9bb8" text-anchor="middle">prose</text>
  <rect x="911" y="377.87" width="22" height="182.13000000000002" fill="#ff6b35" rx="1.5"/>
  <text x="922.0" y="374.87" font-family="monospace" font-size="8" fill="#ff6b35" text-anchor="middle" font-weight="bold">47</text>
  <rect x="936" y="521.0" width="22" height="39.0" fill="#9370db" rx="1.5"/>
  <text x="947.0" y="518.0" font-family="monospace" font-size="8" fill="#9370db" text-anchor="middle" font-weight="bold">10</text>
  <rect x="961" y="560.0" width="22" height="0.0" fill="#3a4a7a" rx="1.5"/>
  <rect x="986" y="560.0" width="22" height="0.0" fill="#3a4a7a" rx="1.5"/>
  <text x="955" y="578" font-family="monospace" font-size="9" fill="#8a9bb8" text-anchor="middle">coding</text>
  <rect x="1020" y="416.48" width="22" height="143.52" fill="#ff6b35" rx="1.5"/>
  <text x="1031.0" y="413.48" font-family="monospace" font-size="8" fill="#ff6b35" text-anchor="middle" font-weight="bold">37</text>
  <rect x="1045" y="262.43" width="22" height="297.57" fill="#9370db" rx="1.5"/>
  <text x="1056.0" y="259.43" font-family="monospace" font-size="8" fill="#9370db" text-anchor="middle" font-weight="bold">76</text>
  <rect x="1070" y="405.95" width="22" height="154.05" fill="#00d9ff" rx="1.5"/>
  <text x="1081.0" y="402.95" font-family="monospace" font-size="8" fill="#00d9ff" text-anchor="middle" font-weight="bold">40</text>
  <rect x="1095" y="272.57" width="22" height="287.43" fill="#00ff88" rx="1.5"/>
  <text x="1106.0" y="269.57" font-family="monospace" font-size="8" fill="#00ff88" text-anchor="middle" font-weight="bold">74</text>
  <text x="1064" y="578" font-family="monospace" font-size="9" fill="#8a9bb8" text-anchor="middle">reasoning</text>
  <rect x="1129" y="521.0" width="22" height="39.0" fill="#ff6b35" rx="1.5"/>
  <text x="1140.0" y="518.0" font-family="monospace" font-size="8" fill="#ff6b35" text-anchor="middle" font-weight="bold">10</text>
  <rect x="1154" y="455.87" width="22" height="104.13000000000001" fill="#9370db" rx="1.5"/>
  <text x="1165.0" y="452.87" font-family="monospace" font-size="8" fill="#9370db" text-anchor="middle" font-weight="bold">27</text>
  <rect x="1179" y="533.87" width="22" height="26.130000000000003" fill="#00d9ff" rx="1.5"/>
  <text x="1190.0" y="530.87" font-family="monospace" font-size="8" fill="#00d9ff" text-anchor="middle" font-weight="bold">7</text>
  <rect x="1204" y="416.87" width="22" height="143.13000000000002" fill="#00ff88" rx="1.5"/>
  <text x="1215.0" y="413.87" font-family="monospace" font-size="8" fill="#00ff88" text-anchor="middle" font-weight="bold">37</text>
  <text x="1173" y="578" font-family="monospace" font-size="9" fill="#8a9bb8" text-anchor="middle">math</text>
  <rect x="1238" y="560.0" width="22" height="0.0" fill="#3a4a7a" rx="1.5"/>
  <rect x="1263" y="560.0" width="22" height="0.0" fill="#3a4a7a" rx="1.5"/>
  <rect x="1288" y="560.0" width="22" height="0.0" fill="#3a4a7a" rx="1.5"/>
  <rect x="1313" y="560.0" width="22" height="0.0" fill="#3a4a7a" rx="1.5"/>
  <text x="1282" y="578" font-family="monospace" font-size="9" fill="#8a9bb8" text-anchor="middle">tool_call</text>

  <!-- Legend -->
  <g font-family="monospace" font-size="10">
    <rect x="700" y="130" width="10" height="10" fill="#ff6b35" rx="1"/>
    <text x="715" y="139" fill="#e0e6f0">Mistral-L</text>
    <rect x="800" y="130" width="10" height="10" fill="#9370db" rx="1"/>
    <text x="815" y="139" fill="#e0e6f0">GPT-OSS</text>
    <rect x="900" y="130" width="10" height="10" fill="#00d9ff" rx="1"/>
    <text x="915" y="139" fill="#e0e6f0">Mixtral</text>
    <rect x="990" y="130" width="10" height="10" fill="#00ff88" rx="1"/>
    <text x="1005" y="139" fill="#e0e6f0">GLM-4.7</text>
  </g>
  
  <!-- Bottom stats -->
  <g font-family="monospace" font-size="11" fill="#8a9bb8">
    <text x="60" y="610">vLLM 0.24.0 · FlashInferCutlassNvFp4LinearKernel · 3.1 tok/s · 85K tokens · 10.9h · 15 errors (12 timeouts)</text>
  </g>
</svg>