<svg xmlns="http://www.w3.org/2000/svg" viewBox="0 0 1200 630" width="1200" height="630">
  <defs>
    <linearGradient id="bg" x1="0%" y1="0%" x2="100%" y2="100%">
      <stop offset="0%" stop-color="#0a0e27"/>
      <stop offset="50%" stop-color="#0d1b3e"/>
      <stop offset="100%" stop-color="#061528"/>
    </linearGradient>
    <linearGradient id="accent" x1="0%" y1="0%" x2="100%" y2="0%">
      <stop offset="0%" stop-color="#00ff88"/>
      <stop offset="50%" stop-color="#00d9ff"/>
      <stop offset="100%" stop-color="#7b68ee"/>
    </linearGradient>
  </defs>
  
  <!-- Background -->
  <rect width="1200" height="630" fill="url(#bg)"/>
  
  <!-- Grid lines -->
  <g stroke="#1a2a5a" stroke-width="0.5" opacity="0.3">
    <line x1="0" y1="100" x2="1200" y2="100"/>
    <line x1="0" y1="200" x2="1200" y2="200"/>
    <line x1="0" y1="300" x2="1200" y2="300"/>
    <line x1="0" y1="400" x2="1200" y2="400"/>
    <line x1="0" y1="500" x2="1200" y2="500"/>
    <line x1="200" y1="0" x2="200" y2="630"/>
    <line x1="400" y1="0" x2="400" y2="630"/>
    <line x1="600" y1="0" x2="600" y2="630"/>
    <line x1="800" y1="0" x2="800" y2="630"/>
    <line x1="1000" y1="0" x2="1000" y2="630"/>
  </g>
  
  <!-- Title -->
  <text x="60" y="55" font-family="monospace" font-size="26" fill="#00ff88" font-weight="bold">SMF CLEARINGHOUSE</text>
  <text x="60" y="85" font-family="sans-serif" font-size="32" fill="#e0e6f0" font-weight="bold">GLM-4.7-Flash on DGX Spark</text>
  <text x="60" y="115" font-family="sans-serif" font-size="18" fill="#8a9bb8">30B/3B MoE · 64 experts · MLA attention · Day 3 of 10</text>
  
  <!-- Left panel: Architecture diagram -->
  <text x="60" y="160" font-family="monospace" font-size="14" fill="#00ff88" font-weight="bold">ARCHITECTURE: 64 EXPERTS, 4 ACTIVE + 1 SHARED</text>
  
  <!-- Shared expert (always on) -->
  <rect x="60" y="180" width="280" height="30" rx="4" fill="#00ff88" opacity="0.2" stroke="#00ff88" stroke-width="1.5"/>
  <text x="200" y="200" font-family="monospace" font-size="11" fill="#00ff88" text-anchor="middle">SHARED EXPERT (always active)</text>
  
  <!-- 8 routed expert boxes (representing 64) -->
  <g font-family="monospace" font-size="10" text-anchor="middle">
    <rect x="60" y="220" width="30" height="35" rx="3" fill="#00d9ff" opacity="0.25" stroke="#00d9ff" stroke-width="1.5"/>
    <text x="75" y="242" fill="#00d9ff">E1✓</text>
    <rect x="96" y="220" width="30" height="35" rx="3" fill="#00d9ff" opacity="0.25" stroke="#00d9ff" stroke-width="1.5"/>
    <text x="111" y="242" fill="#00d9ff">E2✓</text>
    <rect x="132" y="220" width="30" height="35" rx="3" fill="#00d9ff" opacity="0.25" stroke="#00d9ff" stroke-width="1.5"/>
    <text x="147" y="242" fill="#00d9ff">E3✓</text>
    <rect x="168" y="220" width="30" height="35" rx="3" fill="#00d9ff" opacity="0.25" stroke="#00d9ff" stroke-width="1.5"/>
    <text x="183" y="242" fill="#00d9ff">E4✓</text>
    <rect x="204" y="220" width="30" height="35" rx="3" fill="#1a2a5a" stroke="#3a4a7a" stroke-width="1"/>
    <text x="219" y="242" fill="#5a6a9a">E5</text>
    <rect x="240" y="220" width="30" height="35" rx="3" fill="#1a2a5a" stroke="#3a4a7a" stroke-width="1"/>
    <text x="255" y="242" fill="#5a6a9a">E6</text>
    <rect x="276" y="220" width="30" height="35" rx="3" fill="#1a2a5a" stroke="#3a4a7a" stroke-width="1"/>
    <text x="291" y="242" fill="#5a6a9a">E7</text>
    <rect x="312" y="220" width="30" height="35" rx="3" fill="#1a2a5a" stroke="#3a4a7a" stroke-width="1"/>
    <text x="327" y="242" fill="#5a6a9a">E8</text>
    <text x="200" y="270" fill="#5a6a9a">...60 more experts...</text>
  </g>
  
  <!-- MLA attention -->
  <text x="60" y="300" font-family="monospace" font-size="14" fill="#00ff88" font-weight="bold">MLA ATTENTION</text>
  <g font-family="monospace" font-size="12" fill="#e0e6f0">
    <text x="60" y="325">Q LoRA rank: 768</text>
    <text x="60" y="345">KV LoRA rank: 512</text>
    <text x="60" y="365" fill="#8a9bb8">→ 50% attention compression</text>
  </g>
  
  <!-- Compression -->
  <text x="60" y="400" font-family="monospace" font-size="14" fill="#00ff88" font-weight="bold">COMPRESSION</text>
  <g font-family="monospace" font-size="13" fill="#e0e6f0">
    <text x="60" y="425">BF16: 31 GB (48 shards)</text>
    <text x="60" y="445">NVFP4 W4A16: 18 GB (4 shards)</text>
    <text x="60" y="465" fill="#00d9ff" font-weight="bold">Ratio: 1.76×</text>
  </g>
  
  <!-- Stats -->
  <text x="60" y="500" font-family="monospace" font-size="14" fill="#00ff88" font-weight="bold">INFERENCE</text>
  <g font-family="monospace" font-size="12" fill="#e0e6f0">
    <text x="60" y="525">Context: 202K (limited to 16K)</text>
    <text x="60" y="545">Tokens: 501,812 (most verbose)</text>
    <text x="60" y="565" fill="#8a9bb8">Wall time: 5.8h (longest)</text>
  </g>
  
  <!-- Right panel: Benchmark bar chart -->
  <text x="450" y="160" font-family="monospace" font-size="14" fill="#00ff88" font-weight="bold">SMF-BENCH RESULTS: 63/181 (34.8%) — BIMODAL PROFILE</text>
  
  <!-- Bar chart -->
  <line x1="450" y1="170" x2="450" y2="560" stroke="#3a4a7a" stroke-width="1.5"/>
  <line x1="450" y1="560" x2="1150" y2="560" stroke="#3a4a7a" stroke-width="1.5"/>
  
  <!-- Y-axis labels -->
  <g font-family="monospace" font-size="10" fill="#5a6a9a" text-anchor="end">
    <text x="445" y="174">100%</text>
    <text x="445" y="272">75%</text>
    <text x="445" y="370">50%</text>
    <text x="445" y="468">25%</text>
    <text x="445" y="563">0%</text>
  </g>
  
  <!-- Grid lines -->
  <g stroke="#1a2a5a" stroke-width="0.5" opacity="0.5">
    <line x1="450" y1="170" x2="1150" y2="170"/>
    <line x1="450" y1="268" x2="1150" y2="268"/>
    <line x1="450" y1="366" x2="1150" y2="366"/>
    <line x1="450" y1="464" x2="1150" y2="464"/>
  </g>
  <rect x="475" y="170.0" width="28" height="390.0" fill="#00ff88" rx="2"/>
  <text x="489.0" y="166.0" font-family="monospace" font-size="9" fill="#00ff88" text-anchor="middle" font-weight="bold">100</text>
  <rect x="509" y="170.0" width="28" height="390.0" fill="#00d9ff" rx="2"/>
  <text x="523.0" y="166.0" font-family="monospace" font-size="9" fill="#00d9ff" text-anchor="middle" font-weight="bold">100</text>
  <rect x="543" y="194.18" width="28" height="365.82" fill="#9370db" rx="2"/>
  <text x="557.0" y="190.18" font-family="monospace" font-size="9" fill="#9370db" text-anchor="middle" font-weight="bold">94</text>
  <text x="517.0" y="578" font-family="monospace" font-size="9" fill="#8a9bb8" text-anchor="middle">agentic</text>
  <rect x="579" y="170.0" width="28" height="390.0" fill="#00ff88" rx="2"/>
  <text x="593.0" y="166.0" font-family="monospace" font-size="9" fill="#00ff88" text-anchor="middle" font-weight="bold">100</text>
  <rect x="613" y="326.0" width="28" height="234.0" fill="#00d9ff" rx="2"/>
  <text x="627.0" y="322.0" font-family="monospace" font-size="9" fill="#00d9ff" text-anchor="middle" font-weight="bold">60</text>
  <rect x="647" y="170.0" width="28" height="390.0" fill="#9370db" rx="2"/>
  <text x="661.0" y="166.0" font-family="monospace" font-size="9" fill="#9370db" text-anchor="middle" font-weight="bold">100</text>
  <text x="621.0" y="578" font-family="monospace" font-size="9" fill="#8a9bb8" text-anchor="middle">writing</text>
  <rect x="683" y="272.57" width="28" height="287.43" fill="#00ff88" rx="2"/>
  <text x="697.0" y="268.57" font-family="monospace" font-size="9" fill="#00ff88" text-anchor="middle" font-weight="bold">74</text>
  <rect x="717" y="405.95" width="28" height="154.05" fill="#00d9ff" rx="2"/>
  <text x="731.0" y="401.95" font-family="monospace" font-size="9" fill="#00d9ff" text-anchor="middle" font-weight="bold">40</text>
  <rect x="751" y="262.43" width="28" height="297.57" fill="#9370db" rx="2"/>
  <text x="765.0" y="258.43" font-family="monospace" font-size="9" fill="#9370db" text-anchor="middle" font-weight="bold">76</text>
  <text x="725.0" y="578" font-family="monospace" font-size="9" fill="#8a9bb8" text-anchor="middle">reasoning</text>
  <rect x="787" y="416.87" width="28" height="143.13000000000002" fill="#00ff88" rx="2"/>
  <text x="801.0" y="412.87" font-family="monospace" font-size="9" fill="#00ff88" text-anchor="middle" font-weight="bold">37</text>
  <rect x="821" y="533.87" width="28" height="26.130000000000003" fill="#00d9ff" rx="2"/>
  <text x="835.0" y="529.87" font-family="monospace" font-size="9" fill="#00d9ff" text-anchor="middle" font-weight="bold">7</text>
  <rect x="855" y="455.87" width="28" height="104.13000000000001" fill="#9370db" rx="2"/>
  <text x="869.0" y="451.87" font-family="monospace" font-size="9" fill="#9370db" text-anchor="middle" font-weight="bold">27</text>
  <text x="829.0" y="578" font-family="monospace" font-size="9" fill="#8a9bb8" text-anchor="middle">math</text>
  <rect x="891" y="547.13" width="28" height="12.870000000000001" fill="#00ff88" rx="2"/>
  <text x="905.0" y="543.13" font-family="monospace" font-size="9" fill="#00ff88" text-anchor="middle" font-weight="bold">3</text>
  <rect x="925" y="313.13" width="28" height="246.87" fill="#00d9ff" rx="2"/>
  <text x="939.0" y="309.13" font-family="monospace" font-size="9" fill="#00d9ff" text-anchor="middle" font-weight="bold">63</text>
  <rect x="959" y="260.87" width="28" height="299.13" fill="#9370db" rx="2"/>
  <text x="973.0" y="256.87" font-family="monospace" font-size="9" fill="#9370db" text-anchor="middle" font-weight="bold">77</text>
  <text x="933.0" y="578" font-family="monospace" font-size="9" fill="#8a9bb8" text-anchor="middle">instruct</text>
  <rect x="995" y="533.87" width="28" height="26.130000000000003" fill="#00ff88" rx="2"/>
  <text x="1009.0" y="529.87" font-family="monospace" font-size="9" fill="#00ff88" text-anchor="middle" font-weight="bold">7</text>
  <rect x="1029" y="313.13" width="28" height="246.87" fill="#00d9ff" rx="2"/>
  <text x="1043.0" y="309.13" font-family="monospace" font-size="9" fill="#00d9ff" text-anchor="middle" font-weight="bold">63</text>
  <rect x="1063" y="235.13" width="28" height="324.87" fill="#9370db" rx="2"/>
  <text x="1077.0" y="231.13" font-family="monospace" font-size="9" fill="#9370db" text-anchor="middle" font-weight="bold">83</text>
  <text x="1037.0" y="578" font-family="monospace" font-size="9" fill="#8a9bb8" text-anchor="middle">prose</text>
  <rect x="1099" y="560.0" width="28" height="0.0" fill="#3a4a7a" rx="2"/>
  <rect x="1133" y="560.0" width="28" height="0.0" fill="#3a4a7a" rx="2"/>
  <rect x="1167" y="521.0" width="28" height="39.0" fill="#9370db" rx="2"/>
  <text x="1181.0" y="517.0" font-family="monospace" font-size="9" fill="#9370db" text-anchor="middle" font-weight="bold">10</text>
  <text x="1141.0" y="578" font-family="monospace" font-size="9" fill="#8a9bb8" text-anchor="middle">coding</text>
  <rect x="1203" y="560.0" width="28" height="0.0" fill="#3a4a7a" rx="2"/>
  <rect x="1237" y="560.0" width="28" height="0.0" fill="#3a4a7a" rx="2"/>
  <rect x="1271" y="560.0" width="28" height="0.0" fill="#3a4a7a" rx="2"/>
  <text x="1245.0" y="578" font-family="monospace" font-size="9" fill="#8a9bb8" text-anchor="middle">tool_call</text>

  
  <!-- Legend -->
  <g font-family="monospace" font-size="11">
    <rect x="820" y="130" width="12" height="12" fill="#00ff88" rx="2"/>
    <text x="838" y="140" fill="#e0e6f0">GLM-4.7</text>
    <rect x="920" y="130" width="12" height="12" fill="#00d9ff" rx="2"/>
    <text x="938" y="140" fill="#e0e6f0">Mixtral</text>
    <rect x="1010" y="130" width="12" height="12" fill="#9370db" rx="2"/>
    <text x="1028" y="140" fill="#e0e6f0">GPT-OSS</text>
  </g>
  
  <!-- Bottom stats -->
  <g font-family="monospace" font-size="12" fill="#8a9bb8">
    <text x="60" y="610">vLLM 0.24.0 · BF16 native · Glm4MoeLiteForCausalLM · transformers 5.0.0rc0 · 501K tokens · 5.8h</text>
  </g>
</svg>