<?xml version="1.0" encoding="UTF-8"?>
<!-- Hero: a tall body collapses to a short bar. A marker appears only
     above a floor line. A hollow box sits off to the side, unconnected.
     Brand palette. No visible text. -->
<svg xmlns="http://www.w3.org/2000/svg" viewBox="0 0 1200 630" width="1200" height="630" role="img" aria-label="A tall stack collapses to a short bar. A second mark appears only above a floor. An empty box sits unconnected.">
  <defs>
    <linearGradient id="sizeBg" x1="0" y1="0" x2="1" y2="1">
      <stop offset="0%" stop-color="#08131f"/>
      <stop offset="55%" stop-color="#0c1c30"/>
      <stop offset="100%" stop-color="#070d14"/>
    </linearGradient>
    <radialGradient id="sizeTeal" cx="22%" cy="18%" r="36%">
      <stop offset="0%" stop-color="#00d4ff" stop-opacity="0.12"/>
      <stop offset="100%" stop-color="#0e7490" stop-opacity="0"/>
    </radialGradient>
    <radialGradient id="sizeGold" cx="84%" cy="78%" r="30%">
      <stop offset="0%" stop-color="#f59e0b" stop-opacity="0.10"/>
      <stop offset="100%" stop-color="#f59e0b" stop-opacity="0"/>
    </radialGradient>
  </defs>

  <rect width="1200" height="630" fill="url(#sizeBg)"/>
  <rect width="1200" height="630" fill="url(#sizeTeal)"/>
  <rect width="1200" height="630" fill="url(#sizeGold)"/>
  <rect x="56" y="42" width="1088" height="546" rx="8" fill="none" stroke="#162236" stroke-width="2"/>

  <g fill="#1a3a52">
    <rect x="148" y="118" width="210" height="8" rx="2"/>
    <rect x="148" y="138" width="210" height="8" rx="2"/>
    <rect x="148" y="158" width="188" height="8" rx="2"/>
    <rect x="148" y="178" width="210" height="8" rx="2"/>
    <rect x="148" y="198" width="164" height="8" rx="2"/>
    <rect x="148" y="218" width="210" height="8" rx="2"/>
    <rect x="148" y="238" width="196" height="8" rx="2"/>
    <rect x="148" y="258" width="210" height="8" rx="2"/>
    <rect x="148" y="278" width="150" height="8" rx="2" opacity="0.7"/>
  </g>

  <path d="M120 360 H520" fill="none" stroke="#f59e0b" stroke-width="2" stroke-dasharray="6 8" opacity="0.85"/>

  <rect x="148" y="408" width="92" height="14" rx="3" fill="#00d4ff" opacity="0.9"/>

  <rect x="620" y="188" width="92" height="14" rx="3" fill="#00d4ff" opacity="0.9"/>
  <rect x="728" y="184" width="36" height="22" rx="4" fill="#f59e0b" opacity="0.9"/>

  <rect x="900" y="250" width="150" height="88" rx="8" fill="none" stroke="#1e3a5f" stroke-width="2" stroke-dasharray="7 6"/>
  <path d="M820 196 H900" fill="none" stroke="#162236" stroke-width="2" stroke-dasharray="4 8"/>
</svg>
