<svg xmlns="http://www.w3.org/2000/svg" width="1200" height="630" viewBox="0 0 1200 630" fill="none">
  <rect width="1200" height="630" fill="#0f0a1a"/>
  <defs>
    <linearGradient id="g" x1="0" y1="0" x2="1200" y2="630" gradientUnits="userSpaceOnUse">
      <stop stop-color="#C792EA" stop-opacity="0.35"/>
      <stop offset="0.55" stop-color="#7c3aed" stop-opacity="0.15"/>
      <stop offset="1" stop-color="#2563eb" stop-opacity="0.25"/>
    </linearGradient>
  </defs>
  <rect width="1200" height="630" fill="url(#g)"/>
  <!-- Stream Deck grid -->
  <g transform="translate(120,160)">
    <rect x="0" y="0" width="280" height="220" rx="28" fill="#1a1228" stroke="#C792EA" stroke-opacity="0.5"/>
    <g fill="#2a1f3d">
      <rect x="28" y="32" width="64" height="64" rx="12"/><rect x="108" y="32" width="64" height="64" rx="12"/><rect x="188" y="32" width="64" height="64" rx="12"/>
      <rect x="28" y="112" width="64" height="64" rx="12"/><rect x="108" y="112" width="64" height="64" rx="12"/><rect x="188" y="112" width="64" height="64" rx="12"/>
    </g>
    <rect x="28" y="32" width="64" height="64" rx="12" fill="#16a34a" fill-opacity="0.85"/>
    <rect x="108" y="32" width="64" height="64" rx="12" fill="#dc2626" fill-opacity="0.85"/>
    <rect x="188" y="32" width="64" height="64" rx="12" fill="#2563eb" fill-opacity="0.85"/>
    <rect x="28" y="112" width="64" height="64" rx="12" fill="#7c3aed" fill-opacity="0.85"/>
    <rect x="108" y="112" width="64" height="64" rx="12" fill="#db2777" fill-opacity="0.85"/>
    <rect x="188" y="112" width="64" height="64" rx="12" fill="#d97706" fill-opacity="0.85"/>
  </g>
  <!-- PR cards -->
  <g transform="translate(480,150)">
    <rect x="0" y="0" width="560" height="72" rx="14" fill="#1a1228" stroke="#C792EA" stroke-opacity="0.35"/>
    <text x="28" y="44" fill="#C792EA" font-family="Segoe UI, system-ui, sans-serif" font-size="22" font-weight="600">#110020 · CODEX_HOME isolation</text>
    <rect x="0" y="96" width="560" height="72" rx="14" fill="#1a1228" stroke="#C792EA" stroke-opacity="0.35"/>
    <text x="28" y="140" fill="#C792EA" font-family="Segoe UI, system-ui, sans-serif" font-size="22" font-weight="600">#110024 · channel restartPending race</text>
    <rect x="0" y="192" width="560" height="72" rx="14" fill="#1a1228" stroke="#C792EA" stroke-opacity="0.35"/>
    <text x="28" y="236" fill="#C792EA" font-family="Segoe UI, system-ui, sans-serif" font-size="22" font-weight="600">#110082 · orphaned Chrome stop</text>
  </g>
  <text x="120" y="520" fill="#e0e1dd" font-family="Segoe UI, system-ui, sans-serif" font-size="42" font-weight="700">OpenClaw PRs + Stream Deck</text>
  <text x="120" y="570" fill="#9d4edd" font-family="Segoe UI, system-ui, sans-serif" font-size="24">Jasmine's Workshop · SMF Clearinghouse</text>
</svg>
